<mxfile host="app.diagrams.net" modified="2023-10-27T03:52:44.431Z" agent="Mozilla/5.0 (Windows NT 10.0; Win64; x64) AppleWebKit/537.36 (KHTML, like Gecko) Chrome/118.0.0.0 Safari/537.36" etag="TEOuGO6G7Ov_Rr1EdPTr" version="22.0.8" type="github">
  <diagram name="Page-1" id="yUO-QkWpa_U_Ise3Jthb">
    <mxGraphModel dx="1434" dy="750" grid="1" gridSize="10" guides="1" tooltips="1" connect="1" arrows="1" fold="1" page="1" pageScale="1" pageWidth="850" pageHeight="1100" math="0" shadow="0">
      <root>
        <mxCell id="0" />
        <mxCell id="1" parent="0" />
        <mxCell id="3FXkl9Uenxrdrb0-9oeA-2" value="" style="rounded=0;whiteSpace=wrap;html=1;" parent="1" vertex="1">
          <mxGeometry x="224.5" y="310" width="370" height="1430" as="geometry" />
        </mxCell>
        <mxCell id="3FXkl9Uenxrdrb0-9oeA-7" value="&amp;lt;&amp;lt;actor&amp;gt;&amp;gt;&lt;br&gt;&lt;br&gt;&lt;b&gt;UserManagementSystem&lt;br&gt;&lt;/b&gt;" style="html=1;align=center;verticalAlign=middle;dashed=0;whiteSpace=wrap;" parent="1" vertex="1">
          <mxGeometry x="655" y="524" width="160" height="70" as="geometry" />
        </mxCell>
        <mxCell id="3FXkl9Uenxrdrb0-9oeA-8" value="CreateUserAccount" style="ellipse;whiteSpace=wrap;html=1;" parent="1" vertex="1">
          <mxGeometry x="349.75" y="454" width="120" height="30" as="geometry" />
        </mxCell>
        <mxCell id="3FXkl9Uenxrdrb0-9oeA-9" value="UserSignIn" style="ellipse;whiteSpace=wrap;html=1;" parent="1" vertex="1">
          <mxGeometry x="372.25" y="494" width="75" height="30" as="geometry" />
        </mxCell>
        <mxCell id="3FXkl9Uenxrdrb0-9oeA-10" value="" style="endArrow=none;html=1;rounded=0;entryX=0;entryY=0.5;entryDx=0;entryDy=0;exitX=0.5;exitY=0;exitDx=0;exitDy=0;exitPerimeter=0;" parent="1" source="3FXkl9Uenxrdrb0-9oeA-6" target="3FXkl9Uenxrdrb0-9oeA-8" edge="1">
          <mxGeometry width="50" height="50" relative="1" as="geometry">
            <mxPoint x="206.5" y="570" as="sourcePoint" />
            <mxPoint x="436.5" y="590" as="targetPoint" />
          </mxGeometry>
        </mxCell>
        <mxCell id="3FXkl9Uenxrdrb0-9oeA-11" value="" style="endArrow=none;html=1;rounded=0;entryX=0;entryY=0.5;entryDx=0;entryDy=0;exitX=0.5;exitY=0;exitDx=0;exitDy=0;exitPerimeter=0;" parent="1" source="3FXkl9Uenxrdrb0-9oeA-6" target="3FXkl9Uenxrdrb0-9oeA-9" edge="1">
          <mxGeometry width="50" height="50" relative="1" as="geometry">
            <mxPoint x="206.5" y="590" as="sourcePoint" />
            <mxPoint x="306.5" y="640" as="targetPoint" />
          </mxGeometry>
        </mxCell>
        <mxCell id="3FXkl9Uenxrdrb0-9oeA-12" value="" style="endArrow=none;html=1;rounded=0;entryX=1;entryY=0.5;entryDx=0;entryDy=0;exitX=0;exitY=0;exitDx=0;exitDy=0;" parent="1" source="3FXkl9Uenxrdrb0-9oeA-7" target="3FXkl9Uenxrdrb0-9oeA-8" edge="1">
          <mxGeometry width="50" height="50" relative="1" as="geometry">
            <mxPoint x="613.5" y="595" as="sourcePoint" />
            <mxPoint x="436.5" y="590" as="targetPoint" />
          </mxGeometry>
        </mxCell>
        <mxCell id="3FXkl9Uenxrdrb0-9oeA-13" value="" style="endArrow=none;html=1;rounded=0;entryX=0;entryY=0;entryDx=0;entryDy=0;exitX=1;exitY=0.5;exitDx=0;exitDy=0;" parent="1" source="3FXkl9Uenxrdrb0-9oeA-9" target="3FXkl9Uenxrdrb0-9oeA-7" edge="1">
          <mxGeometry width="50" height="50" relative="1" as="geometry">
            <mxPoint x="466.5" y="650" as="sourcePoint" />
            <mxPoint x="613.5" y="594" as="targetPoint" />
          </mxGeometry>
        </mxCell>
        <mxCell id="3FXkl9Uenxrdrb0-9oeA-21" value="EditProfileInfo" style="ellipse;whiteSpace=wrap;html=1;" parent="1" vertex="1">
          <mxGeometry x="362" y="534" width="95.5" height="30" as="geometry" />
        </mxCell>
        <mxCell id="3FXkl9Uenxrdrb0-9oeA-22" value="" style="endArrow=none;html=1;rounded=0;entryX=0;entryY=0.5;entryDx=0;entryDy=0;exitX=0.5;exitY=0;exitDx=0;exitDy=0;exitPerimeter=0;" parent="1" source="3FXkl9Uenxrdrb0-9oeA-6" target="3FXkl9Uenxrdrb0-9oeA-21" edge="1">
          <mxGeometry width="50" height="50" relative="1" as="geometry">
            <mxPoint x="97" y="570" as="sourcePoint" />
            <mxPoint x="422" y="430" as="targetPoint" />
          </mxGeometry>
        </mxCell>
        <mxCell id="3FXkl9Uenxrdrb0-9oeA-23" value="" style="endArrow=none;html=1;rounded=0;exitX=1;exitY=0.5;exitDx=0;exitDy=0;entryX=0;entryY=0;entryDx=0;entryDy=0;" parent="1" source="3FXkl9Uenxrdrb0-9oeA-21" target="3FXkl9Uenxrdrb0-9oeA-7" edge="1">
          <mxGeometry width="50" height="50" relative="1" as="geometry">
            <mxPoint x="532" y="480" as="sourcePoint" />
            <mxPoint x="590" y="535" as="targetPoint" />
          </mxGeometry>
        </mxCell>
        <mxCell id="3FXkl9Uenxrdrb0-9oeA-24" value="DeleteProfile" style="ellipse;whiteSpace=wrap;html=1;" parent="1" vertex="1">
          <mxGeometry x="362.5" y="574" width="95" height="30" as="geometry" />
        </mxCell>
        <mxCell id="3FXkl9Uenxrdrb0-9oeA-25" value="" style="endArrow=none;html=1;rounded=0;entryX=0;entryY=0.5;entryDx=0;entryDy=0;exitX=0.5;exitY=0;exitDx=0;exitDy=0;exitPerimeter=0;" parent="1" source="3FXkl9Uenxrdrb0-9oeA-6" target="3FXkl9Uenxrdrb0-9oeA-24" edge="1">
          <mxGeometry width="50" height="50" relative="1" as="geometry">
            <mxPoint x="200" y="670" as="sourcePoint" />
            <mxPoint x="440" y="580" as="targetPoint" />
          </mxGeometry>
        </mxCell>
        <mxCell id="3FXkl9Uenxrdrb0-9oeA-26" value="" style="endArrow=none;html=1;rounded=0;exitX=1;exitY=0.5;exitDx=0;exitDy=0;entryX=0;entryY=0.25;entryDx=0;entryDy=0;" parent="1" source="3FXkl9Uenxrdrb0-9oeA-24" target="3FXkl9Uenxrdrb0-9oeA-7" edge="1">
          <mxGeometry width="50" height="50" relative="1" as="geometry">
            <mxPoint x="550" y="630" as="sourcePoint" />
            <mxPoint x="608" y="685" as="targetPoint" />
          </mxGeometry>
        </mxCell>
        <mxCell id="3FXkl9Uenxrdrb0-9oeA-27" value="&amp;lt;&amp;lt;actor&amp;gt;&amp;gt;&lt;br&gt;&lt;br&gt;&lt;b style=&quot;border-color: var(--border-color);&quot;&gt;TimelineManagemetSystem&lt;/b&gt;&lt;b&gt;&lt;br&gt;&lt;/b&gt;" style="html=1;align=center;verticalAlign=middle;dashed=0;whiteSpace=wrap;" parent="1" vertex="1">
          <mxGeometry x="655" y="823" width="160" height="70" as="geometry" />
        </mxCell>
        <mxCell id="3FXkl9Uenxrdrb0-9oeA-28" value="ViewOtherUserTimeline" style="ellipse;whiteSpace=wrap;html=1;" parent="1" vertex="1">
          <mxGeometry x="327.25" y="726" width="165" height="30" as="geometry" />
        </mxCell>
        <mxCell id="3FXkl9Uenxrdrb0-9oeA-29" value="" style="endArrow=none;html=1;rounded=0;entryX=0;entryY=0.5;entryDx=0;entryDy=0;exitX=0.5;exitY=0.5;exitDx=0;exitDy=0;exitPerimeter=0;" parent="1" source="3FXkl9Uenxrdrb0-9oeA-6" target="3FXkl9Uenxrdrb0-9oeA-28" edge="1">
          <mxGeometry width="50" height="50" relative="1" as="geometry">
            <mxPoint x="75" y="720" as="sourcePoint" />
            <mxPoint x="300" y="550" as="targetPoint" />
          </mxGeometry>
        </mxCell>
        <mxCell id="3FXkl9Uenxrdrb0-9oeA-30" value="SearchUserTimelines" style="ellipse;whiteSpace=wrap;html=1;" parent="1" vertex="1">
          <mxGeometry x="350" y="766" width="120" height="30" as="geometry" />
        </mxCell>
        <mxCell id="3FXkl9Uenxrdrb0-9oeA-31" value="" style="endArrow=none;html=1;rounded=0;entryX=0;entryY=0.5;entryDx=0;entryDy=0;exitX=0.5;exitY=0.5;exitDx=0;exitDy=0;exitPerimeter=0;" parent="1" source="3FXkl9Uenxrdrb0-9oeA-6" target="3FXkl9Uenxrdrb0-9oeA-30" edge="1">
          <mxGeometry width="50" height="50" relative="1" as="geometry">
            <mxPoint x="190" y="660" as="sourcePoint" />
            <mxPoint x="365" y="710" as="targetPoint" />
          </mxGeometry>
        </mxCell>
        <mxCell id="3FXkl9Uenxrdrb0-9oeA-32" value="" style="endArrow=none;html=1;rounded=0;exitX=1;exitY=0.5;exitDx=0;exitDy=0;entryX=0;entryY=0;entryDx=0;entryDy=0;" parent="1" source="3FXkl9Uenxrdrb0-9oeA-28" target="3FXkl9Uenxrdrb0-9oeA-27" edge="1">
          <mxGeometry width="50" height="50" relative="1" as="geometry">
            <mxPoint x="498" y="590" as="sourcePoint" />
            <mxPoint x="610" y="637" as="targetPoint" />
          </mxGeometry>
        </mxCell>
        <mxCell id="3FXkl9Uenxrdrb0-9oeA-34" value="" style="endArrow=none;html=1;rounded=0;exitX=1;exitY=0.5;exitDx=0;exitDy=0;entryX=0;entryY=0;entryDx=0;entryDy=0;" parent="1" source="3FXkl9Uenxrdrb0-9oeA-30" target="3FXkl9Uenxrdrb0-9oeA-27" edge="1">
          <mxGeometry width="50" height="50" relative="1" as="geometry">
            <mxPoint x="390" y="630" as="sourcePoint" />
            <mxPoint x="440" y="580" as="targetPoint" />
          </mxGeometry>
        </mxCell>
        <mxCell id="3FXkl9Uenxrdrb0-9oeA-45" value="ViewTimeLine" style="ellipse;whiteSpace=wrap;html=1;" parent="1" vertex="1">
          <mxGeometry x="362" y="803" width="95" height="30" as="geometry" />
        </mxCell>
        <mxCell id="3FXkl9Uenxrdrb0-9oeA-46" value="" style="endArrow=none;html=1;rounded=0;exitX=0.5;exitY=0.5;exitDx=0;exitDy=0;exitPerimeter=0;entryX=0;entryY=0.5;entryDx=0;entryDy=0;" parent="1" source="3FXkl9Uenxrdrb0-9oeA-6" target="3FXkl9Uenxrdrb0-9oeA-45" edge="1">
          <mxGeometry width="50" height="50" relative="1" as="geometry">
            <mxPoint x="80" y="720" as="sourcePoint" />
            <mxPoint x="345" y="720" as="targetPoint" />
          </mxGeometry>
        </mxCell>
        <mxCell id="3FXkl9Uenxrdrb0-9oeA-47" value="SearchUserTimeLine" style="ellipse;whiteSpace=wrap;html=1;" parent="1" vertex="1">
          <mxGeometry x="350" y="882" width="120" height="30" as="geometry" />
        </mxCell>
        <mxCell id="3FXkl9Uenxrdrb0-9oeA-48" value="" style="endArrow=none;html=1;rounded=0;entryX=0;entryY=0.5;entryDx=0;entryDy=0;exitX=0.5;exitY=0.5;exitDx=0;exitDy=0;exitPerimeter=0;" parent="1" source="3FXkl9Uenxrdrb0-9oeA-6" target="3FXkl9Uenxrdrb0-9oeA-47" edge="1">
          <mxGeometry width="50" height="50" relative="1" as="geometry">
            <mxPoint x="180" y="810" as="sourcePoint" />
            <mxPoint x="430" y="720" as="targetPoint" />
          </mxGeometry>
        </mxCell>
        <mxCell id="3FXkl9Uenxrdrb0-9oeA-49" value="" style="endArrow=none;html=1;rounded=0;exitX=1;exitY=0.5;exitDx=0;exitDy=0;entryX=0;entryY=0.5;entryDx=0;entryDy=0;" parent="1" source="3FXkl9Uenxrdrb0-9oeA-47" target="3FXkl9Uenxrdrb0-9oeA-27" edge="1">
          <mxGeometry width="50" height="50" relative="1" as="geometry">
            <mxPoint x="540" y="690" as="sourcePoint" />
            <mxPoint x="620" y="810" as="targetPoint" />
          </mxGeometry>
        </mxCell>
        <mxCell id="3FXkl9Uenxrdrb0-9oeA-50" value="AddJournalEntryToTimeLine" style="ellipse;whiteSpace=wrap;html=1;" parent="1" vertex="1">
          <mxGeometry x="330" y="843" width="160" height="30" as="geometry" />
        </mxCell>
        <mxCell id="3FXkl9Uenxrdrb0-9oeA-51" value="" style="endArrow=none;html=1;rounded=0;entryX=0;entryY=0.5;entryDx=0;entryDy=0;exitX=0.5;exitY=0.5;exitDx=0;exitDy=0;exitPerimeter=0;" parent="1" source="3FXkl9Uenxrdrb0-9oeA-6" target="3FXkl9Uenxrdrb0-9oeA-50" edge="1">
          <mxGeometry width="50" height="50" relative="1" as="geometry">
            <mxPoint x="180" y="810" as="sourcePoint" />
            <mxPoint x="290" y="690" as="targetPoint" />
          </mxGeometry>
        </mxCell>
        <mxCell id="3FXkl9Uenxrdrb0-9oeA-52" value="" style="endArrow=none;html=1;rounded=0;exitX=1;exitY=0.5;exitDx=0;exitDy=0;entryX=0;entryY=0.5;entryDx=0;entryDy=0;" parent="1" source="3FXkl9Uenxrdrb0-9oeA-50" target="3FXkl9Uenxrdrb0-9oeA-27" edge="1">
          <mxGeometry width="50" height="50" relative="1" as="geometry">
            <mxPoint x="475" y="940" as="sourcePoint" />
            <mxPoint x="620" y="810" as="targetPoint" />
          </mxGeometry>
        </mxCell>
        <mxCell id="3FXkl9Uenxrdrb0-9oeA-53" value="" style="endArrow=none;html=1;rounded=0;entryX=0;entryY=0.5;entryDx=0;entryDy=0;" parent="1" source="3FXkl9Uenxrdrb0-9oeA-45" target="3FXkl9Uenxrdrb0-9oeA-27" edge="1">
          <mxGeometry width="50" height="50" relative="1" as="geometry">
            <mxPoint x="465" y="690" as="sourcePoint" />
            <mxPoint x="620" y="810" as="targetPoint" />
          </mxGeometry>
        </mxCell>
        <mxCell id="3FXkl9Uenxrdrb0-9oeA-54" value="ViewOtherUser Profile" style="ellipse;whiteSpace=wrap;html=1;" parent="1" vertex="1">
          <mxGeometry x="350" y="614" width="120" height="40" as="geometry" />
        </mxCell>
        <mxCell id="3FXkl9Uenxrdrb0-9oeA-55" value="" style="endArrow=none;html=1;rounded=0;entryX=0;entryY=0.5;entryDx=0;entryDy=0;exitX=0.5;exitY=0;exitDx=0;exitDy=0;exitPerimeter=0;" parent="1" source="3FXkl9Uenxrdrb0-9oeA-6" target="3FXkl9Uenxrdrb0-9oeA-54" edge="1">
          <mxGeometry width="50" height="50" relative="1" as="geometry">
            <mxPoint x="75" y="440" as="sourcePoint" />
            <mxPoint x="440" y="330" as="targetPoint" />
          </mxGeometry>
        </mxCell>
        <mxCell id="3FXkl9Uenxrdrb0-9oeA-56" value="" style="endArrow=none;html=1;rounded=0;entryX=0;entryY=0.75;entryDx=0;entryDy=0;exitX=1;exitY=0.5;exitDx=0;exitDy=0;" parent="1" source="3FXkl9Uenxrdrb0-9oeA-54" target="3FXkl9Uenxrdrb0-9oeA-7" edge="1">
          <mxGeometry width="50" height="50" relative="1" as="geometry">
            <mxPoint x="550" y="330" as="sourcePoint" />
            <mxPoint x="640" y="297.5" as="targetPoint" />
          </mxGeometry>
        </mxCell>
        <mxCell id="3FXkl9Uenxrdrb0-9oeA-57" value="ViewTimelineReel" style="ellipse;whiteSpace=wrap;html=1;" parent="1" vertex="1">
          <mxGeometry x="343.25" y="923" width="132.5" height="30" as="geometry" />
        </mxCell>
        <mxCell id="3FXkl9Uenxrdrb0-9oeA-58" value="" style="endArrow=none;html=1;rounded=0;entryX=0;entryY=0.5;entryDx=0;entryDy=0;exitX=0.5;exitY=0.5;exitDx=0;exitDy=0;exitPerimeter=0;" parent="1" source="3FXkl9Uenxrdrb0-9oeA-6" target="3FXkl9Uenxrdrb0-9oeA-57" edge="1">
          <mxGeometry width="50" height="50" relative="1" as="geometry">
            <mxPoint x="180" y="980" as="sourcePoint" />
            <mxPoint x="335" y="910" as="targetPoint" />
          </mxGeometry>
        </mxCell>
        <mxCell id="3FXkl9Uenxrdrb0-9oeA-59" value="" style="endArrow=none;html=1;rounded=0;entryX=0;entryY=1;entryDx=0;entryDy=0;exitX=1;exitY=0.5;exitDx=0;exitDy=0;" parent="1" source="3FXkl9Uenxrdrb0-9oeA-57" target="3FXkl9Uenxrdrb0-9oeA-27" edge="1">
          <mxGeometry width="50" height="50" relative="1" as="geometry">
            <mxPoint x="524" y="835.98" as="sourcePoint" />
            <mxPoint x="600" y="1005" as="targetPoint" />
          </mxGeometry>
        </mxCell>
        <mxCell id="3FXkl9Uenxrdrb0-9oeA-60" value="SearchOtherUserTimelines" style="ellipse;whiteSpace=wrap;html=1;" parent="1" vertex="1">
          <mxGeometry x="331.25" y="963" width="157.5" height="30" as="geometry" />
        </mxCell>
        <mxCell id="3FXkl9Uenxrdrb0-9oeA-61" value="" style="endArrow=none;html=1;rounded=0;entryX=0;entryY=0.5;entryDx=0;entryDy=0;exitX=0.5;exitY=0.5;exitDx=0;exitDy=0;exitPerimeter=0;" parent="1" source="3FXkl9Uenxrdrb0-9oeA-6" target="3FXkl9Uenxrdrb0-9oeA-60" edge="1">
          <mxGeometry width="50" height="50" relative="1" as="geometry">
            <mxPoint x="90" y="750" as="sourcePoint" />
            <mxPoint x="420" y="870" as="targetPoint" />
          </mxGeometry>
        </mxCell>
        <mxCell id="3FXkl9Uenxrdrb0-9oeA-62" value="" style="endArrow=none;html=1;rounded=0;exitX=1;exitY=0.5;exitDx=0;exitDy=0;entryX=0;entryY=1;entryDx=0;entryDy=0;" parent="1" source="3FXkl9Uenxrdrb0-9oeA-60" target="3FXkl9Uenxrdrb0-9oeA-27" edge="1">
          <mxGeometry width="50" height="50" relative="1" as="geometry">
            <mxPoint x="570" y="1130" as="sourcePoint" />
            <mxPoint x="680" y="950" as="targetPoint" />
          </mxGeometry>
        </mxCell>
        <mxCell id="3FXkl9Uenxrdrb0-9oeA-63" value="ViewJournalEntry" style="ellipse;whiteSpace=wrap;html=1;" parent="1" vertex="1">
          <mxGeometry x="349" y="1147" width="120" height="32" as="geometry" />
        </mxCell>
        <mxCell id="3FXkl9Uenxrdrb0-9oeA-64" value="&amp;lt;&amp;lt;actor&amp;gt;&amp;gt;&lt;br&gt;&lt;br&gt;&lt;b&gt;JournalManagementSystem&lt;br&gt;&lt;/b&gt;" style="html=1;align=center;verticalAlign=middle;dashed=0;whiteSpace=wrap;" parent="1" vertex="1">
          <mxGeometry x="650" y="1179" width="170" height="70" as="geometry" />
        </mxCell>
        <mxCell id="3FXkl9Uenxrdrb0-9oeA-65" value="" style="endArrow=none;html=1;rounded=0;entryX=0;entryY=0.5;entryDx=0;entryDy=0;exitX=1;exitY=1;exitDx=0;exitDy=0;exitPerimeter=0;" parent="1" source="3FXkl9Uenxrdrb0-9oeA-6" target="3FXkl9Uenxrdrb0-9oeA-63" edge="1">
          <mxGeometry width="50" height="50" relative="1" as="geometry">
            <mxPoint x="180" y="1062" as="sourcePoint" />
            <mxPoint x="345" y="1012" as="targetPoint" />
          </mxGeometry>
        </mxCell>
        <mxCell id="3FXkl9Uenxrdrb0-9oeA-66" value="SearchJournalEntrries" style="ellipse;whiteSpace=wrap;html=1;" parent="1" vertex="1">
          <mxGeometry x="339.75" y="1307" width="135" height="32" as="geometry" />
        </mxCell>
        <mxCell id="3FXkl9Uenxrdrb0-9oeA-67" value="" style="endArrow=none;html=1;rounded=0;entryX=0;entryY=0.5;entryDx=0;entryDy=0;exitX=1;exitY=1;exitDx=0;exitDy=0;exitPerimeter=0;" parent="1" source="3FXkl9Uenxrdrb0-9oeA-6" target="3FXkl9Uenxrdrb0-9oeA-66" edge="1">
          <mxGeometry width="50" height="50" relative="1" as="geometry">
            <mxPoint x="190" y="1152" as="sourcePoint" />
            <mxPoint x="430" y="1012" as="targetPoint" />
          </mxGeometry>
        </mxCell>
        <mxCell id="3FXkl9Uenxrdrb0-9oeA-68" value="" style="endArrow=none;html=1;rounded=0;exitX=1;exitY=0.5;exitDx=0;exitDy=0;entryX=0;entryY=1;entryDx=0;entryDy=0;" parent="1" source="3FXkl9Uenxrdrb0-9oeA-66" target="3FXkl9Uenxrdrb0-9oeA-64" edge="1">
          <mxGeometry width="50" height="50" relative="1" as="geometry">
            <mxPoint x="540" y="982" as="sourcePoint" />
            <mxPoint x="600" y="1112" as="targetPoint" />
          </mxGeometry>
        </mxCell>
        <mxCell id="3FXkl9Uenxrdrb0-9oeA-69" value="AddJournalEntry" style="ellipse;whiteSpace=wrap;html=1;" parent="1" vertex="1">
          <mxGeometry x="348.5" y="1187" width="120" height="32" as="geometry" />
        </mxCell>
        <mxCell id="3FXkl9Uenxrdrb0-9oeA-70" value="DeleteJournalEntry" style="ellipse;whiteSpace=wrap;html=1;" parent="1" vertex="1">
          <mxGeometry x="348.5" y="1267" width="120" height="32" as="geometry" />
        </mxCell>
        <mxCell id="3FXkl9Uenxrdrb0-9oeA-71" value="EditJournalEntry" style="ellipse;whiteSpace=wrap;html=1;" parent="1" vertex="1">
          <mxGeometry x="348.5" y="1227" width="120" height="32" as="geometry" />
        </mxCell>
        <mxCell id="3FXkl9Uenxrdrb0-9oeA-72" value="" style="endArrow=none;html=1;rounded=0;entryX=0;entryY=0.5;entryDx=0;entryDy=0;exitX=1;exitY=1;exitDx=0;exitDy=0;exitPerimeter=0;" parent="1" source="3FXkl9Uenxrdrb0-9oeA-6" target="3FXkl9Uenxrdrb0-9oeA-69" edge="1">
          <mxGeometry width="50" height="50" relative="1" as="geometry">
            <mxPoint x="190" y="1072" as="sourcePoint" />
            <mxPoint x="290" y="982" as="targetPoint" />
          </mxGeometry>
        </mxCell>
        <mxCell id="3FXkl9Uenxrdrb0-9oeA-73" value="" style="endArrow=none;html=1;rounded=0;entryX=0.025;entryY=0.617;entryDx=0;entryDy=0;entryPerimeter=0;exitX=1;exitY=1;exitDx=0;exitDy=0;exitPerimeter=0;" parent="1" source="3FXkl9Uenxrdrb0-9oeA-6" target="3FXkl9Uenxrdrb0-9oeA-71" edge="1">
          <mxGeometry width="50" height="50" relative="1" as="geometry">
            <mxPoint x="190" y="1092" as="sourcePoint" />
            <mxPoint x="290" y="1062" as="targetPoint" />
          </mxGeometry>
        </mxCell>
        <mxCell id="3FXkl9Uenxrdrb0-9oeA-74" value="" style="endArrow=none;html=1;rounded=0;entryX=0;entryY=0.5;entryDx=0;entryDy=0;exitX=1;exitY=1;exitDx=0;exitDy=0;exitPerimeter=0;" parent="1" source="3FXkl9Uenxrdrb0-9oeA-6" target="3FXkl9Uenxrdrb0-9oeA-70" edge="1">
          <mxGeometry width="50" height="50" relative="1" as="geometry">
            <mxPoint x="190" y="1112" as="sourcePoint" />
            <mxPoint x="293" y="1149" as="targetPoint" />
          </mxGeometry>
        </mxCell>
        <mxCell id="3FXkl9Uenxrdrb0-9oeA-75" value="" style="endArrow=none;html=1;rounded=0;exitX=1;exitY=0.5;exitDx=0;exitDy=0;entryX=0;entryY=0.5;entryDx=0;entryDy=0;" parent="1" source="3FXkl9Uenxrdrb0-9oeA-71" target="3FXkl9Uenxrdrb0-9oeA-64" edge="1">
          <mxGeometry width="50" height="50" relative="1" as="geometry">
            <mxPoint x="475" y="1062" as="sourcePoint" />
            <mxPoint x="600" y="1112" as="targetPoint" />
          </mxGeometry>
        </mxCell>
        <mxCell id="3FXkl9Uenxrdrb0-9oeA-76" value="" style="endArrow=none;html=1;rounded=0;exitX=1;exitY=0.5;exitDx=0;exitDy=0;entryX=0;entryY=1;entryDx=0;entryDy=0;" parent="1" source="3FXkl9Uenxrdrb0-9oeA-70" target="3FXkl9Uenxrdrb0-9oeA-64" edge="1">
          <mxGeometry width="50" height="50" relative="1" as="geometry">
            <mxPoint x="485" y="1072" as="sourcePoint" />
            <mxPoint x="600" y="1112" as="targetPoint" />
          </mxGeometry>
        </mxCell>
        <mxCell id="3FXkl9Uenxrdrb0-9oeA-77" value="" style="endArrow=none;html=1;rounded=0;exitX=1;exitY=0.5;exitDx=0;exitDy=0;entryX=0;entryY=0;entryDx=0;entryDy=0;" parent="1" source="3FXkl9Uenxrdrb0-9oeA-63" target="3FXkl9Uenxrdrb0-9oeA-64" edge="1">
          <mxGeometry width="50" height="50" relative="1" as="geometry">
            <mxPoint x="475" y="1142" as="sourcePoint" />
            <mxPoint x="600" y="1112" as="targetPoint" />
          </mxGeometry>
        </mxCell>
        <mxCell id="3FXkl9Uenxrdrb0-9oeA-78" value="" style="endArrow=none;html=1;rounded=0;exitX=1;exitY=0.5;exitDx=0;exitDy=0;entryX=0;entryY=0.5;entryDx=0;entryDy=0;" parent="1" source="3FXkl9Uenxrdrb0-9oeA-69" target="3FXkl9Uenxrdrb0-9oeA-64" edge="1">
          <mxGeometry width="50" height="50" relative="1" as="geometry">
            <mxPoint x="475" y="982" as="sourcePoint" />
            <mxPoint x="600" y="1112" as="targetPoint" />
          </mxGeometry>
        </mxCell>
        <mxCell id="qMlKmiSrW9xh-4VBre1F-2" value="ViewDetailedTimelineEntry" style="ellipse;whiteSpace=wrap;html=1;" vertex="1" parent="1">
          <mxGeometry x="330.75" y="998" width="157.5" height="30" as="geometry" />
        </mxCell>
        <mxCell id="qMlKmiSrW9xh-4VBre1F-3" value="" style="endArrow=none;html=1;rounded=0;entryX=0;entryY=0.5;entryDx=0;entryDy=0;exitX=0.5;exitY=0.5;exitDx=0;exitDy=0;exitPerimeter=0;" edge="1" parent="1" target="qMlKmiSrW9xh-4VBre1F-2" source="3FXkl9Uenxrdrb0-9oeA-6">
          <mxGeometry width="50" height="50" relative="1" as="geometry">
            <mxPoint x="70" y="840" as="sourcePoint" />
            <mxPoint x="420" y="906" as="targetPoint" />
          </mxGeometry>
        </mxCell>
        <mxCell id="qMlKmiSrW9xh-4VBre1F-4" value="" style="endArrow=none;html=1;rounded=0;exitX=1;exitY=0.5;exitDx=0;exitDy=0;entryX=0;entryY=1;entryDx=0;entryDy=0;" edge="1" parent="1" source="qMlKmiSrW9xh-4VBre1F-2" target="3FXkl9Uenxrdrb0-9oeA-27">
          <mxGeometry width="50" height="50" relative="1" as="geometry">
            <mxPoint x="570" y="1166" as="sourcePoint" />
            <mxPoint x="650" y="875" as="targetPoint" />
          </mxGeometry>
        </mxCell>
        <mxCell id="qMlKmiSrW9xh-4VBre1F-6" value="ViewJournal" style="ellipse;whiteSpace=wrap;html=1;" vertex="1" parent="1">
          <mxGeometry x="349" y="1110" width="120" height="32" as="geometry" />
        </mxCell>
        <mxCell id="qMlKmiSrW9xh-4VBre1F-7" value="" style="endArrow=none;html=1;rounded=0;entryX=0;entryY=0.5;entryDx=0;entryDy=0;exitX=1;exitY=1;exitDx=0;exitDy=0;exitPerimeter=0;" edge="1" parent="1" target="qMlKmiSrW9xh-4VBre1F-6" source="3FXkl9Uenxrdrb0-9oeA-6">
          <mxGeometry width="50" height="50" relative="1" as="geometry">
            <mxPoint x="60" y="790" as="sourcePoint" />
            <mxPoint x="345" y="968" as="targetPoint" />
          </mxGeometry>
        </mxCell>
        <mxCell id="qMlKmiSrW9xh-4VBre1F-8" value="" style="endArrow=none;html=1;rounded=0;exitX=1;exitY=0.5;exitDx=0;exitDy=0;entryX=0;entryY=0;entryDx=0;entryDy=0;" edge="1" parent="1" source="qMlKmiSrW9xh-4VBre1F-6" target="3FXkl9Uenxrdrb0-9oeA-64">
          <mxGeometry width="50" height="50" relative="1" as="geometry">
            <mxPoint x="475" y="1098" as="sourcePoint" />
            <mxPoint x="650" y="973" as="targetPoint" />
          </mxGeometry>
        </mxCell>
        <mxCell id="qMlKmiSrW9xh-4VBre1F-9" value="DiscardJournalEntry" style="ellipse;whiteSpace=wrap;html=1;" vertex="1" parent="1">
          <mxGeometry x="341" y="1344.5" width="135" height="32" as="geometry" />
        </mxCell>
        <mxCell id="qMlKmiSrW9xh-4VBre1F-10" value="" style="endArrow=none;html=1;rounded=0;entryX=0;entryY=0.5;entryDx=0;entryDy=0;exitX=1;exitY=1;exitDx=0;exitDy=0;exitPerimeter=0;" edge="1" parent="1" target="qMlKmiSrW9xh-4VBre1F-9" source="3FXkl9Uenxrdrb0-9oeA-6">
          <mxGeometry width="50" height="50" relative="1" as="geometry">
            <mxPoint x="50" y="870" as="sourcePoint" />
            <mxPoint x="430" y="1048.5" as="targetPoint" />
          </mxGeometry>
        </mxCell>
        <mxCell id="qMlKmiSrW9xh-4VBre1F-11" value="" style="endArrow=none;html=1;rounded=0;exitX=1;exitY=0.5;exitDx=0;exitDy=0;entryX=0;entryY=1;entryDx=0;entryDy=0;" edge="1" parent="1" source="qMlKmiSrW9xh-4VBre1F-9" target="3FXkl9Uenxrdrb0-9oeA-64">
          <mxGeometry width="50" height="50" relative="1" as="geometry">
            <mxPoint x="540" y="1018.5" as="sourcePoint" />
            <mxPoint x="650" y="1123.5" as="targetPoint" />
          </mxGeometry>
        </mxCell>
        <mxCell id="qMlKmiSrW9xh-4VBre1F-12" value="DeleteProfile" style="ellipse;whiteSpace=wrap;html=1;" vertex="1" parent="1">
          <mxGeometry x="327.25" y="691" width="165" height="30" as="geometry" />
        </mxCell>
        <mxCell id="qMlKmiSrW9xh-4VBre1F-13" value="" style="endArrow=none;html=1;rounded=0;entryX=0;entryY=0.5;entryDx=0;entryDy=0;exitX=0.5;exitY=0.5;exitDx=0;exitDy=0;exitPerimeter=0;" edge="1" parent="1" target="qMlKmiSrW9xh-4VBre1F-12" source="3FXkl9Uenxrdrb0-9oeA-6">
          <mxGeometry width="50" height="50" relative="1" as="geometry">
            <mxPoint x="50" y="770" as="sourcePoint" />
            <mxPoint x="300" y="515" as="targetPoint" />
          </mxGeometry>
        </mxCell>
        <mxCell id="qMlKmiSrW9xh-4VBre1F-14" value="" style="endArrow=none;html=1;rounded=0;exitX=1;exitY=0.5;exitDx=0;exitDy=0;entryX=0;entryY=0;entryDx=0;entryDy=0;" edge="1" parent="1" source="qMlKmiSrW9xh-4VBre1F-12" target="3FXkl9Uenxrdrb0-9oeA-27">
          <mxGeometry width="50" height="50" relative="1" as="geometry">
            <mxPoint x="498" y="555" as="sourcePoint" />
            <mxPoint x="650" y="734" as="targetPoint" />
          </mxGeometry>
        </mxCell>
        <mxCell id="qMlKmiSrW9xh-4VBre1F-16" value="ViewThread" style="ellipse;whiteSpace=wrap;html=1;" vertex="1" parent="1">
          <mxGeometry x="345" y="1470" width="120" height="30" as="geometry" />
        </mxCell>
        <mxCell id="qMlKmiSrW9xh-4VBre1F-17" value="&amp;lt;&amp;lt;actor&amp;gt;&amp;gt;&lt;br&gt;&lt;br&gt;&lt;b style=&quot;border-color: var(--border-color);&quot;&gt;ForumManagementSystem&lt;/b&gt;&lt;b&gt;&lt;br&gt;&lt;/b&gt;" style="html=1;align=center;verticalAlign=middle;dashed=0;whiteSpace=wrap;" vertex="1" parent="1">
          <mxGeometry x="655" y="1490" width="160" height="70" as="geometry" />
        </mxCell>
        <mxCell id="qMlKmiSrW9xh-4VBre1F-18" value="" style="endArrow=none;html=1;rounded=0;entryX=0;entryY=0.5;entryDx=0;entryDy=0;exitX=0;exitY=1;exitDx=0;exitDy=0;exitPerimeter=0;" edge="1" parent="1" target="qMlKmiSrW9xh-4VBre1F-16" source="3FXkl9Uenxrdrb0-9oeA-6">
          <mxGeometry width="50" height="50" relative="1" as="geometry">
            <mxPoint x="180" y="1540" as="sourcePoint" />
            <mxPoint x="345" y="1460" as="targetPoint" />
          </mxGeometry>
        </mxCell>
        <mxCell id="qMlKmiSrW9xh-4VBre1F-19" value="SearchForAThread" style="ellipse;whiteSpace=wrap;html=1;" vertex="1" parent="1">
          <mxGeometry x="345" y="1550" width="120" height="30" as="geometry" />
        </mxCell>
        <mxCell id="qMlKmiSrW9xh-4VBre1F-20" value="" style="endArrow=none;html=1;rounded=0;entryX=0;entryY=0.5;entryDx=0;entryDy=0;exitX=0;exitY=1;exitDx=0;exitDy=0;exitPerimeter=0;" edge="1" parent="1" target="qMlKmiSrW9xh-4VBre1F-19" source="3FXkl9Uenxrdrb0-9oeA-6">
          <mxGeometry width="50" height="50" relative="1" as="geometry">
            <mxPoint x="-240" y="1080" as="sourcePoint" />
            <mxPoint x="430" y="1460" as="targetPoint" />
          </mxGeometry>
        </mxCell>
        <mxCell id="qMlKmiSrW9xh-4VBre1F-21" value="" style="endArrow=none;html=1;rounded=0;exitX=1;exitY=0.5;exitDx=0;exitDy=0;entryX=0;entryY=0.5;entryDx=0;entryDy=0;" edge="1" parent="1" source="qMlKmiSrW9xh-4VBre1F-19" target="qMlKmiSrW9xh-4VBre1F-17">
          <mxGeometry width="50" height="50" relative="1" as="geometry">
            <mxPoint x="540" y="1430" as="sourcePoint" />
            <mxPoint x="600" y="1715" as="targetPoint" />
          </mxGeometry>
        </mxCell>
        <mxCell id="qMlKmiSrW9xh-4VBre1F-22" value="CreateForumThread" style="ellipse;whiteSpace=wrap;html=1;" vertex="1" parent="1">
          <mxGeometry x="347.25" y="1510" width="120" height="30" as="geometry" />
        </mxCell>
        <mxCell id="qMlKmiSrW9xh-4VBre1F-23" value="" style="endArrow=none;html=1;rounded=0;entryX=0;entryY=0.5;entryDx=0;entryDy=0;exitX=0;exitY=1;exitDx=0;exitDy=0;exitPerimeter=0;" edge="1" parent="1" target="qMlKmiSrW9xh-4VBre1F-22" source="3FXkl9Uenxrdrb0-9oeA-6">
          <mxGeometry width="50" height="50" relative="1" as="geometry">
            <mxPoint x="180" y="1540" as="sourcePoint" />
            <mxPoint x="290" y="1430" as="targetPoint" />
          </mxGeometry>
        </mxCell>
        <mxCell id="qMlKmiSrW9xh-4VBre1F-24" value="" style="endArrow=none;html=1;rounded=0;exitX=1;exitY=0.5;exitDx=0;exitDy=0;entryX=0;entryY=0.5;entryDx=0;entryDy=0;" edge="1" parent="1" source="qMlKmiSrW9xh-4VBre1F-22" target="qMlKmiSrW9xh-4VBre1F-17">
          <mxGeometry width="50" height="50" relative="1" as="geometry">
            <mxPoint x="200" y="1610" as="sourcePoint" />
            <mxPoint x="600" y="1560" as="targetPoint" />
          </mxGeometry>
        </mxCell>
        <mxCell id="qMlKmiSrW9xh-4VBre1F-25" value="" style="endArrow=none;html=1;rounded=0;exitX=1;exitY=0.5;exitDx=0;exitDy=0;entryX=0;entryY=0;entryDx=0;entryDy=0;" edge="1" parent="1" source="qMlKmiSrW9xh-4VBre1F-16" target="qMlKmiSrW9xh-4VBre1F-17">
          <mxGeometry width="50" height="50" relative="1" as="geometry">
            <mxPoint x="465" y="1670" as="sourcePoint" />
            <mxPoint x="600" y="1560" as="targetPoint" />
          </mxGeometry>
        </mxCell>
        <mxCell id="qMlKmiSrW9xh-4VBre1F-26" value="ViewForum" style="ellipse;whiteSpace=wrap;html=1;" vertex="1" parent="1">
          <mxGeometry x="345" y="1430" width="120" height="30" as="geometry" />
        </mxCell>
        <mxCell id="qMlKmiSrW9xh-4VBre1F-27" value="" style="endArrow=none;html=1;rounded=0;entryX=0;entryY=0.5;entryDx=0;entryDy=0;exitX=0;exitY=1;exitDx=0;exitDy=0;exitPerimeter=0;" edge="1" parent="1" target="qMlKmiSrW9xh-4VBre1F-26" source="3FXkl9Uenxrdrb0-9oeA-6">
          <mxGeometry width="50" height="50" relative="1" as="geometry">
            <mxPoint x="30" y="1430" as="sourcePoint" />
            <mxPoint x="345" y="1380" as="targetPoint" />
          </mxGeometry>
        </mxCell>
        <mxCell id="qMlKmiSrW9xh-4VBre1F-28" value="" style="endArrow=none;html=1;rounded=0;exitX=1;exitY=0.5;exitDx=0;exitDy=0;entryX=0;entryY=0;entryDx=0;entryDy=0;" edge="1" parent="1" source="qMlKmiSrW9xh-4VBre1F-26" target="qMlKmiSrW9xh-4VBre1F-17">
          <mxGeometry width="50" height="50" relative="1" as="geometry">
            <mxPoint x="465" y="1590" as="sourcePoint" />
            <mxPoint x="630" y="1460" as="targetPoint" />
          </mxGeometry>
        </mxCell>
        <mxCell id="3FXkl9Uenxrdrb0-9oeA-6" value="User" style="shape=umlActor;verticalLabelPosition=middle;verticalAlign=middle;html=1;outlineConnect=0;fontColor=#ff0000;labelPosition=left;align=right;" parent="1" vertex="1">
          <mxGeometry x="50" y="1028" width="30" height="60" as="geometry" />
        </mxCell>
        <mxCell id="qMlKmiSrW9xh-4VBre1F-30" value="ReplyToThread" style="ellipse;whiteSpace=wrap;html=1;" vertex="1" parent="1">
          <mxGeometry x="347.25" y="1590" width="120" height="30" as="geometry" />
        </mxCell>
        <mxCell id="qMlKmiSrW9xh-4VBre1F-31" value="" style="endArrow=none;html=1;rounded=0;exitX=0;exitY=1;exitDx=0;exitDy=0;exitPerimeter=0;entryX=0;entryY=0.5;entryDx=0;entryDy=0;" edge="1" parent="1" target="qMlKmiSrW9xh-4VBre1F-30" source="3FXkl9Uenxrdrb0-9oeA-6">
          <mxGeometry width="50" height="50" relative="1" as="geometry">
            <mxPoint x="180" y="1680" as="sourcePoint" />
            <mxPoint x="360" y="1860" as="targetPoint" />
          </mxGeometry>
        </mxCell>
        <mxCell id="qMlKmiSrW9xh-4VBre1F-32" value="" style="endArrow=none;html=1;rounded=0;entryX=0;entryY=1;entryDx=0;entryDy=0;exitX=1;exitY=0.5;exitDx=0;exitDy=0;" edge="1" parent="1" source="qMlKmiSrW9xh-4VBre1F-30" target="qMlKmiSrW9xh-4VBre1F-17">
          <mxGeometry width="50" height="50" relative="1" as="geometry">
            <mxPoint x="210" y="1760" as="sourcePoint" />
            <mxPoint x="630" y="1700" as="targetPoint" />
          </mxGeometry>
        </mxCell>
        <mxCell id="qMlKmiSrW9xh-4VBre1F-33" value="DiscardThread" style="ellipse;whiteSpace=wrap;html=1;" vertex="1" parent="1">
          <mxGeometry x="347.25" y="1630" width="120" height="27" as="geometry" />
        </mxCell>
        <mxCell id="qMlKmiSrW9xh-4VBre1F-36" value="" style="endArrow=none;html=1;rounded=0;entryX=0;entryY=1;entryDx=0;entryDy=0;entryPerimeter=0;exitX=0;exitY=0.5;exitDx=0;exitDy=0;" edge="1" parent="1" source="qMlKmiSrW9xh-4VBre1F-33" target="3FXkl9Uenxrdrb0-9oeA-6">
          <mxGeometry width="50" height="50" relative="1" as="geometry">
            <mxPoint x="350" y="1430" as="sourcePoint" />
            <mxPoint x="400" y="1380" as="targetPoint" />
          </mxGeometry>
        </mxCell>
        <mxCell id="qMlKmiSrW9xh-4VBre1F-37" value="" style="endArrow=none;html=1;rounded=0;entryX=0;entryY=1;entryDx=0;entryDy=0;exitX=1;exitY=0.5;exitDx=0;exitDy=0;" edge="1" parent="1" source="qMlKmiSrW9xh-4VBre1F-33" target="qMlKmiSrW9xh-4VBre1F-17">
          <mxGeometry width="50" height="50" relative="1" as="geometry">
            <mxPoint x="700" y="1670" as="sourcePoint" />
            <mxPoint x="750" y="1620" as="targetPoint" />
          </mxGeometry>
        </mxCell>
        <mxCell id="qMlKmiSrW9xh-4VBre1F-38" value="DiscardReply" style="ellipse;whiteSpace=wrap;html=1;" vertex="1" parent="1">
          <mxGeometry x="349.5" y="1670.5" width="120" height="23" as="geometry" />
        </mxCell>
        <mxCell id="qMlKmiSrW9xh-4VBre1F-41" value="" style="endArrow=none;html=1;rounded=0;entryX=0;entryY=1;entryDx=0;entryDy=0;entryPerimeter=0;exitX=0;exitY=0.5;exitDx=0;exitDy=0;" edge="1" parent="1" source="qMlKmiSrW9xh-4VBre1F-38" target="3FXkl9Uenxrdrb0-9oeA-6">
          <mxGeometry width="50" height="50" relative="1" as="geometry">
            <mxPoint x="270" y="1750" as="sourcePoint" />
            <mxPoint x="320" y="1700" as="targetPoint" />
          </mxGeometry>
        </mxCell>
        <mxCell id="qMlKmiSrW9xh-4VBre1F-42" value="" style="endArrow=none;html=1;rounded=0;exitX=1;exitY=0.5;exitDx=0;exitDy=0;entryX=0;entryY=1;entryDx=0;entryDy=0;" edge="1" parent="1" source="qMlKmiSrW9xh-4VBre1F-38" target="qMlKmiSrW9xh-4VBre1F-17">
          <mxGeometry width="50" height="50" relative="1" as="geometry">
            <mxPoint x="670" y="1680" as="sourcePoint" />
            <mxPoint x="720" y="1630" as="targetPoint" />
          </mxGeometry>
        </mxCell>
        <mxCell id="qMlKmiSrW9xh-4VBre1F-43" value="SearchOtherUserTimeline" style="ellipse;whiteSpace=wrap;html=1;" vertex="1" parent="1">
          <mxGeometry x="331.25" y="1035" width="157.5" height="30" as="geometry" />
        </mxCell>
        <mxCell id="qMlKmiSrW9xh-4VBre1F-44" value="" style="endArrow=none;html=1;rounded=0;exitX=0.5;exitY=0.5;exitDx=0;exitDy=0;exitPerimeter=0;entryX=0;entryY=0.5;entryDx=0;entryDy=0;" edge="1" parent="1" source="3FXkl9Uenxrdrb0-9oeA-6" target="qMlKmiSrW9xh-4VBre1F-43">
          <mxGeometry width="50" height="50" relative="1" as="geometry">
            <mxPoint x="350" y="920" as="sourcePoint" />
            <mxPoint x="400" y="870" as="targetPoint" />
          </mxGeometry>
        </mxCell>
        <mxCell id="qMlKmiSrW9xh-4VBre1F-45" value="" style="endArrow=none;html=1;rounded=0;exitX=1;exitY=0.5;exitDx=0;exitDy=0;entryX=0;entryY=1;entryDx=0;entryDy=0;" edge="1" parent="1" source="qMlKmiSrW9xh-4VBre1F-43" target="3FXkl9Uenxrdrb0-9oeA-27">
          <mxGeometry width="50" height="50" relative="1" as="geometry">
            <mxPoint x="510" y="1070" as="sourcePoint" />
            <mxPoint x="560" y="1020" as="targetPoint" />
          </mxGeometry>
        </mxCell>
        <mxCell id="qMlKmiSrW9xh-4VBre1F-47" value="&lt;br&gt;&lt;span style=&quot;color: rgb(0, 0, 0); font-family: Helvetica; font-size: 12px; font-style: normal; font-variant-ligatures: normal; font-variant-caps: normal; font-weight: 400; letter-spacing: normal; orphans: 2; text-align: center; text-indent: 0px; text-transform: none; widows: 2; word-spacing: 0px; -webkit-text-stroke-width: 0px; background-color: rgb(251, 251, 251); text-decoration-thickness: initial; text-decoration-style: initial; text-decoration-color: initial; float: none; display: inline !important;&quot;&gt;&quot;Chronicle&quot; Application System&lt;/span&gt;" style="text;html=1;strokeColor=none;fillColor=none;align=center;verticalAlign=middle;whiteSpace=wrap;rounded=0;" vertex="1" parent="1">
          <mxGeometry x="378.5" y="330" width="60" height="30" as="geometry" />
        </mxCell>
        <mxCell id="qMlKmiSrW9xh-4VBre1F-48" value="Chronicle System Use Case Diagram" style="rounded=0;whiteSpace=wrap;html=1;" vertex="1" parent="1">
          <mxGeometry x="349" y="230" width="120" height="60" as="geometry" />
        </mxCell>
        <mxCell id="qMlKmiSrW9xh-4VBre1F-49" value="System Administrator" style="shape=umlActor;verticalLabelPosition=bottom;verticalAlign=top;html=1;outlineConnect=0;labelPosition=center;align=center;fontColor=#ff0000;" vertex="1" parent="1">
          <mxGeometry x="50" y="400" width="30" height="60" as="geometry" />
        </mxCell>
        <mxCell id="qMlKmiSrW9xh-4VBre1F-52" value="VerifyNewUser" style="ellipse;whiteSpace=wrap;html=1;" vertex="1" parent="1">
          <mxGeometry x="350" y="415" width="120" height="30" as="geometry" />
        </mxCell>
        <mxCell id="qMlKmiSrW9xh-4VBre1F-54" value="" style="endArrow=none;html=1;rounded=0;exitX=0.5;exitY=0.5;exitDx=0;exitDy=0;exitPerimeter=0;entryX=0;entryY=0.5;entryDx=0;entryDy=0;" edge="1" parent="1" source="qMlKmiSrW9xh-4VBre1F-49" target="qMlKmiSrW9xh-4VBre1F-52">
          <mxGeometry width="50" height="50" relative="1" as="geometry">
            <mxPoint x="120" y="590" as="sourcePoint" />
            <mxPoint x="170" y="540" as="targetPoint" />
          </mxGeometry>
        </mxCell>
        <mxCell id="qMlKmiSrW9xh-4VBre1F-56" value="&amp;lt;&amp;lt;actor&amp;gt;&amp;gt;&lt;br&gt;&lt;br&gt;&lt;b&gt;EmailVerification&lt;br&gt;&lt;/b&gt;" style="html=1;align=center;verticalAlign=middle;dashed=0;whiteSpace=wrap;" vertex="1" parent="1">
          <mxGeometry x="655" y="395" width="160" height="70" as="geometry" />
        </mxCell>
        <mxCell id="qMlKmiSrW9xh-4VBre1F-57" value="" style="endArrow=none;html=1;rounded=0;entryX=0;entryY=0.5;entryDx=0;entryDy=0;exitX=1;exitY=0.5;exitDx=0;exitDy=0;" edge="1" parent="1" source="qMlKmiSrW9xh-4VBre1F-52" target="qMlKmiSrW9xh-4VBre1F-56">
          <mxGeometry width="50" height="50" relative="1" as="geometry">
            <mxPoint x="350" y="620" as="sourcePoint" />
            <mxPoint x="400" y="570" as="targetPoint" />
          </mxGeometry>
        </mxCell>
      </root>
    </mxGraphModel>
  </diagram>
</mxfile>
